<svg width="62" height="54" viewBox="0 0 62 54" fill="none" xmlns="http://www.w3.org/2000/svg">
  <path
    d="M35.9155 0.996582C31.9653 0.996531 28.0711 1.96553 24.5506 3.82452C21.03 5.6835 17.983 8.3798 15.6581 11.6934C13.3331 15.007 11.7962 18.844 11.1727 22.8912C10.5491 26.9385 10.8567 31.0815 12.0702 34.9819C11.9377 35.0744 11.8104 35.1748 11.6889 35.2824L2.51468 43.3994C2.07544 43.7893 1.71452 44.2652 1.45255 44.7998C1.19058 45.3345 1.03267 45.9175 0.987856 46.5154C0.943042 47.1134 1.01219 47.7147 1.19136 48.285C1.37053 48.8552 1.65621 49.3833 2.03208 49.8389C2.40787 50.2947 2.8665 50.6692 3.38179 50.941C3.89708 51.2128 4.45892 51.3767 5.03524 51.4232C5.61156 51.4697 6.19106 51.3979 6.74065 51.212C7.29025 51.0261 7.79916 50.7297 8.23833 50.3397L16.3219 43.1891C18.9637 46.629 22.4035 49.317 26.3194 51.0016C30.2352 52.6862 34.499 53.3122 38.7116 52.821C42.9242 52.3299 46.9478 50.7376 50.4056 48.1932C53.8635 45.6489 56.6426 42.2358 58.4827 38.2733C60.3228 34.3109 61.1637 29.9288 60.9268 25.5372C60.6898 21.1456 59.3828 16.8883 57.1279 13.1637C54.8731 9.43913 51.7442 6.36914 48.0343 4.24117C44.3243 2.11319 40.1546 0.996827 35.9155 0.996582Z"
    fill="white" />
  <path
    d="M35.9159 53.99C32.1724 53.9983 28.4718 53.1641 25.0691 51.5449C21.6665 49.9257 18.6427 47.5601 16.2064 44.6111L8.85159 51.1207C8.31479 51.5952 7.69319 51.9553 7.02227 52.1805C6.35135 52.4057 5.64425 52.4915 4.94135 52.4332C4.23845 52.3748 3.55351 52.1734 2.92563 51.8404C2.29776 51.5073 1.73925 51.0493 1.28199 50.4923C0.824731 49.9353 0.47768 49.2904 0.260651 48.5942C0.0436218 47.8981 -0.0391346 47.1644 0.0171065 46.4351C0.0733477 45.7058 0.267485 44.9951 0.588434 44.3436C0.909383 43.6921 1.35086 43.1126 1.88765 42.6382L10.9557 34.6263C9.41226 29.1873 9.55817 23.3822 11.3728 18.034C13.1874 12.6859 16.5786 8.06623 21.0655 4.83003C25.5524 1.59384 30.9074 -0.0946115 36.371 0.00409369C41.8346 0.102799 47.1297 1.98365 51.5053 5.37995C55.8809 8.77626 59.1151 13.5156 60.7491 18.9261C62.3832 24.3365 62.3343 30.1434 60.6092 35.5233C58.8842 40.9033 55.5707 45.5832 51.1385 48.8996C46.7063 52.216 41.3803 54.0005 35.9159 54V53.99ZM16.4574 41.7569L17.0799 42.5581C20.825 47.4241 26.1886 50.6609 32.1168 51.6324C38.0449 52.6039 44.1089 51.2398 49.117 47.8082C54.1251 44.3766 57.7152 39.1256 59.1819 33.0872C60.6485 27.0488 59.8856 20.6596 57.043 15.1752C54.2005 9.69073 49.4838 5.50765 43.82 3.44798C38.1562 1.38832 31.9547 1.60101 26.4343 4.04425C20.914 6.48749 16.4738 10.9846 13.9865 16.6518C11.4992 22.3191 11.1446 28.7466 12.9923 34.6714L13.2143 35.3824L12.6159 35.803C12.5145 35.8782 12.4132 35.9533 12.3167 36.0384L3.14242 44.1654C2.76402 44.457 2.44747 44.8262 2.21247 45.2501C1.97746 45.674 1.82901 46.1436 1.77636 46.6295C1.72371 47.1155 1.76798 47.6075 1.90641 48.075C2.04485 48.5425 2.27449 48.9754 2.58105 49.3468C2.88762 49.7183 3.26456 50.0203 3.68843 50.2342C4.1123 50.448 4.57404 50.5691 5.04493 50.5899C5.51583 50.6107 5.98581 50.5307 6.42565 50.355C6.86549 50.1793 7.26579 49.9115 7.60165 49.5684L16.4574 41.7569Z"
    fill="#033F40" />
  <path
    d="M35.916 47.2302C46.6866 47.2302 55.4179 38.1707 55.4179 26.9952C55.4179 15.8198 46.6866 6.76025 35.916 6.76025C25.1454 6.76025 16.4141 15.8198 16.4141 26.9952C16.4141 38.1707 25.1454 47.2302 35.916 47.2302Z"
    fill="white" />
  <path
    d="M37.1662 35.7227C36.858 35.6515 36.5723 35.5002 36.3359 35.2829C36.0995 35.0657 35.9202 34.7897 35.8149 34.4809L32.205 23.8201L19.1748 37.3401C21.7094 41.7443 25.7619 44.985 30.5122 46.4064C35.2625 47.8277 40.3558 47.3236 44.7614 44.996C49.167 42.6684 52.5559 38.6912 54.2423 33.8691C55.9287 29.0471 55.7866 23.7404 53.8449 19.0229L38.8842 35.1569C38.6677 35.3947 38.3963 35.5714 38.0958 35.6704C37.7952 35.7694 37.4753 35.7874 37.1662 35.7227Z"
    fill="#033F40" />
  <path
    d="M33.3873 18.4373C33.6924 18.5089 33.9748 18.66 34.2079 18.8765C34.4409 19.0929 34.617 19.3674 34.7193 19.6741L38.2905 30.2748L51.9771 15.518C49.3021 11.4766 45.3036 8.58063 40.7251 7.36864C36.1467 6.15665 31.2998 6.71107 27.0858 8.92881C22.8717 11.1466 19.5773 14.8767 17.815 19.4257C16.0527 23.9747 15.9425 29.0329 17.5049 33.6598L31.6692 18.9531C31.8899 18.7229 32.1634 18.5547 32.4639 18.4645C32.7645 18.3743 33.0823 18.3649 33.3873 18.4373Z"
    fill="#033F40" />
</svg>